<svg width="451" height="97" viewBox="0 0 451 97" fill="none" xmlns="http://www.w3.org/2000/svg">
<circle cx="40.7467" cy="40.2014" r="40.1957" fill="#F423BA"/>
<circle cx="60.8445" cy="55.8331" r="40.1957" fill="#1E5ED9"/>
<path d="M164.017 68.0925C161 68.0925 158.405 67.4533 156.232 66.1749C154.071 64.8837 152.409 63.0939 151.246 60.8056C150.095 58.5172 149.52 55.8837 149.52 52.905C149.52 49.888 150.102 47.2416 151.265 44.9661C152.441 42.6777 154.11 40.8943 156.27 39.6159C158.431 38.3247 161 37.6791 163.979 37.6791C166.549 37.6791 168.799 38.1458 170.729 39.079C172.659 40.0122 174.187 41.3226 175.312 43.0101C176.437 44.6976 177.057 46.6791 177.172 48.9547H169.463C169.246 47.4845 168.671 46.302 167.737 45.4071C166.817 44.4995 165.609 44.0456 164.113 44.0456C162.848 44.0456 161.742 44.3908 160.796 45.0811C159.862 45.7587 159.134 46.7495 158.61 48.0534C158.085 49.3574 157.823 50.9362 157.823 52.7899C157.823 54.6692 158.079 56.2672 158.59 57.584C159.115 58.9007 159.85 59.9043 160.796 60.5946C161.742 61.285 162.848 61.6301 164.113 61.6301C165.046 61.6301 165.884 61.4384 166.625 61.0549C167.379 60.6713 168 60.1152 168.485 59.3865C168.984 58.6451 169.31 57.7566 169.463 56.721H177.172C177.044 58.971 176.431 60.9526 175.331 62.6656C174.245 64.3659 172.742 65.6955 170.825 66.6543C168.907 67.6131 166.638 68.0925 164.017 68.0925ZM196.251 68.0925C193.272 68.0925 190.696 67.4597 188.523 66.1941C186.362 64.9156 184.694 63.1387 183.518 60.8631C182.342 58.5747 181.753 55.922 181.753 52.905C181.753 49.8624 182.342 47.2033 183.518 44.9277C184.694 42.6394 186.362 40.8624 188.523 39.5968C190.696 38.3183 193.272 37.6791 196.251 37.6791C199.229 37.6791 201.799 38.3183 203.959 39.5968C206.133 40.8624 207.807 42.6394 208.984 44.9277C210.16 47.2033 210.748 49.8624 210.748 52.905C210.748 55.922 210.16 58.5747 208.984 60.8631C207.807 63.1387 206.133 64.9156 203.959 66.1941C201.799 67.4597 199.229 68.0925 196.251 68.0925ZM196.289 61.7644C197.644 61.7644 198.775 61.3808 199.683 60.6138C200.591 59.834 201.275 58.7729 201.735 57.4306C202.208 56.0882 202.445 54.5605 202.445 52.8475C202.445 51.1344 202.208 49.6067 201.735 48.2644C201.275 46.922 200.591 45.861 199.683 45.0811C198.775 44.3013 197.644 43.9114 196.289 43.9114C194.921 43.9114 193.771 44.3013 192.837 45.0811C191.917 45.861 191.22 46.922 190.747 48.2644C190.287 49.6067 190.057 51.1344 190.057 52.8475C190.057 54.5605 190.287 56.0882 190.747 57.4306C191.22 58.7729 191.917 59.834 192.837 60.6138C193.771 61.3808 194.921 61.7644 196.289 61.7644ZM216.6 67.5172V38.0627H224.385V43.2594H224.73C225.344 41.5335 226.367 40.172 227.798 39.1749C229.23 38.1777 230.943 37.6791 232.938 37.6791C234.958 37.6791 236.677 38.1841 238.096 39.1941C239.515 40.1912 240.461 41.5463 240.934 43.2594H241.241C241.842 41.5719 242.928 40.2232 244.501 39.2132C246.086 38.1905 247.959 37.6791 250.119 37.6791C252.868 37.6791 255.099 38.5549 256.812 40.3063C258.538 42.0449 259.401 44.5122 259.401 47.7083V67.5172H251.251V49.3191C251.251 47.6827 250.816 46.4554 249.947 45.6372C249.078 44.8191 247.991 44.41 246.687 44.41C245.204 44.41 244.047 44.883 243.216 45.829C242.385 46.7622 241.97 47.9959 241.97 49.53V67.5172H234.05V49.1465C234.05 47.7019 233.634 46.5513 232.803 45.6948C231.985 44.8382 230.905 44.41 229.563 44.41C228.655 44.41 227.837 44.6401 227.108 45.1003C226.392 45.5478 225.823 46.1806 225.401 46.9987C224.98 47.8041 224.769 48.7502 224.769 49.8368V67.5172H216.6ZM266.393 67.5172V38.0627H274.179V43.2594H274.524C275.138 41.5335 276.161 40.172 277.592 39.1749C279.024 38.1777 280.737 37.6791 282.732 37.6791C284.751 37.6791 286.471 38.1841 287.89 39.1941C289.309 40.1912 290.255 41.5463 290.728 43.2594H291.035C291.636 41.5719 292.722 40.2232 294.295 39.2132C295.88 38.1905 297.753 37.6791 299.913 37.6791C302.662 37.6791 304.893 38.5549 306.606 40.3063C308.332 42.0449 309.195 44.5122 309.195 47.7083V67.5172H301.045V49.3191C301.045 47.6827 300.61 46.4554 299.741 45.6372C298.871 44.8191 297.785 44.41 296.481 44.41C294.998 44.41 293.841 44.883 293.01 45.829C292.179 46.7622 291.764 47.9959 291.764 49.53V67.5172H283.844V49.1465C283.844 47.7019 283.428 46.5513 282.597 45.6948C281.779 44.8382 280.699 44.41 279.357 44.41C278.449 44.41 277.631 44.6401 276.902 45.1003C276.186 45.5478 275.617 46.1806 275.195 46.9987C274.773 47.8041 274.563 48.7502 274.563 49.8368V67.5172H266.393ZM335.076 54.976V38.0627H343.245V67.5172H335.402V62.1671H335.095C334.43 63.8929 333.324 65.28 331.778 66.3283C330.244 67.3766 328.371 67.9007 326.159 67.9007C324.19 67.9007 322.458 67.4533 320.962 66.5584C319.467 65.6635 318.297 64.3915 317.453 62.7424C316.622 61.0932 316.2 59.1181 316.187 56.8169V38.0627H324.356V55.3595C324.369 57.0982 324.836 58.4725 325.756 59.4824C326.677 60.4924 327.91 60.9973 329.457 60.9973C330.442 60.9973 331.362 60.7736 332.219 60.3262C333.075 59.8659 333.766 59.1884 334.29 58.2935C334.827 57.3986 335.089 56.2928 335.076 54.976ZM358.488 50.4888V67.5172H350.319V38.0627H358.105V43.2594H358.45C359.102 41.5463 360.195 40.1912 361.729 39.1941C363.263 38.1841 365.123 37.6791 367.309 37.6791C369.355 37.6791 371.138 38.1266 372.659 39.0215C374.181 39.9164 375.363 41.1948 376.207 42.8567C377.051 44.5058 377.473 46.4746 377.473 48.7629V67.5172H369.304V50.2203C369.316 48.4178 368.856 47.0115 367.923 46.0016C366.99 44.9789 365.705 44.4675 364.068 44.4675C362.969 44.4675 361.997 44.704 361.154 45.177C360.323 45.65 359.671 46.3404 359.198 47.248C358.738 48.1429 358.501 49.2232 358.488 50.4888ZM384.451 67.5172V38.0627H392.62V67.5172H384.451ZM388.555 34.2658C387.34 34.2658 386.298 33.8631 385.429 33.0577C384.572 32.2395 384.144 31.2615 384.144 30.1237C384.144 28.9987 384.572 28.0335 385.429 27.2281C386.298 26.41 387.34 26.0009 388.555 26.0009C389.769 26.0009 390.805 26.41 391.661 27.2281C392.531 28.0335 392.965 28.9987 392.965 30.1237C392.965 31.2615 392.531 32.2395 391.661 33.0577C390.805 33.8631 389.769 34.2658 388.555 34.2658ZM415.371 38.0627V44.199H397.633V38.0627H415.371ZM401.66 31.0058H409.829V58.4661C409.829 59.2203 409.944 59.8084 410.174 60.2303C410.404 60.6394 410.724 60.927 411.133 61.0932C411.555 61.2594 412.041 61.3425 412.59 61.3425C412.974 61.3425 413.357 61.3105 413.741 61.2466C414.124 61.1699 414.418 61.1124 414.623 61.074L415.908 67.1529C415.499 67.2807 414.923 67.4277 414.182 67.5939C413.44 67.7729 412.539 67.8816 411.478 67.9199C409.509 67.9966 407.783 67.7345 406.3 67.1337C404.83 66.5328 403.686 65.5996 402.868 64.334C402.05 63.0683 401.647 61.4703 401.66 59.5399V31.0058ZM426.275 78.5627C425.24 78.5627 424.268 78.4796 423.361 78.3134C422.466 78.16 421.724 77.9618 421.136 77.7189L422.977 71.6209C423.936 71.9149 424.799 72.0747 425.566 72.1003C426.346 72.1259 427.017 71.9469 427.579 71.5634C428.155 71.1799 428.621 70.5279 428.979 69.6074L429.459 68.361L418.893 38.0627H427.484L433.582 59.6933H433.888L440.044 38.0627H448.692L437.244 70.7005C436.695 72.2857 435.947 73.6664 435.001 74.8425C434.067 76.0314 432.885 76.9455 431.453 77.5847C430.021 78.2367 428.295 78.5627 426.275 78.5627Z" fill="white"/>
</svg>
